<?xml version="1.0" encoding="UTF-8" standalone="no"?>
<svg width="915px" height="215px" viewBox="0 0 915 215" version="1.1" xmlns="http://www.w3.org/2000/svg" xmlns:xlink="http://www.w3.org/1999/xlink">
  <defs>
    <pattern id="pattern" width="1" height="3" patternUnits="userSpaceOnUse" patternTransform="rotate(45)">
      <rect x="0" y="0" width="1" height="1.2" fill="#888"/>
    </pattern>

    <linearGradient id="half-fill">
      <stop offset="0" stop-color="#444"/>
      <stop offset=".5" stop-color="#444"/>
      <stop offset=".5001" stop-color="#FFF"/>
      <stop offset="1" stop-color="#FFF"/>
    </linearGradient>

    <path id="ampersand" d="M435.798828,39 C437.882172,36.3958203 439.696932,33.0511272 441.243164,28.9658203 C442.789396,24.8805134 443.5625,20.9336128 443.5625,17.125 C443.5625,15.2369697 442.992844,13.723313 441.853516,12.5839844 C440.714187,11.4446558 439.20053,10.875 437.3125,10.875 C435.196604,10.875 433.625982,11.7945872 432.600586,13.6337891 C431.57519,15.472991 431.0625,17.6783726 431.0625,20.25 C431.0625,22.365896 431.33919,24.6607949 431.892578,27.1347656 C432.445966,29.6087363 432.999346,31.6350833 433.552734,33.2138672 C434.106123,34.7926511 434.854813,36.7213428 435.798828,39 L435.798828,39 Z M434.1875,79.625 C438.158874,79.625 441.804671,77.5416875 445.125,73.375 L439.119141,64.4394531 C438.695961,63.755856 437.971685,62.7548894 436.946289,61.4365234 C435.920893,60.1181575 435.033858,58.8974666 434.285156,57.7744141 C433.536455,56.6513616 432.999351,55.6015674 432.673828,54.625 C431.241529,56.5130303 430.09408,58.840481 429.231445,61.6074219 C428.368811,64.3743628 427.9375,67.2551934 427.9375,70.25 C427.9375,72.9843887 428.425776,75.23046 429.402344,76.9882812 C430.378911,78.7461025 431.973947,79.625 434.1875,79.625 L434.1875,79.625 Z M434.1875,89.8789062 C428.3932,89.8789062 423.819678,88.0885596 420.466797,84.5078125 C417.113916,80.9270654 415.4375,76.1745088 415.4375,70.25 C415.4375,60.9400576 419.604125,52.6068076 427.9375,45.25 C427.481769,44.3059849 426.537768,42.5237761 425.105469,39.9033203 C423.67317,37.2828645 422.582686,35.1832761 421.833984,33.6044922 C421.085283,32.0257083 420.352868,29.9749475 419.636719,27.4521484 C418.920569,24.9293494 418.5625,22.5286572 418.5625,20.25 C418.5625,14.3905957 420.255191,9.65431494 423.640625,6.04101562 C427.026059,2.42771631 431.583305,0.62109375 437.3125,0.62109375 C442.683621,0.62109375 447.151349,2.11033667 450.71582,5.08886719 C454.280291,8.06739771 456.0625,12.0794019 456.0625,17.125 C456.0625,19.4036572 455.704431,21.714832 454.988281,24.0585937 C454.272132,26.4023555 453.417648,28.485668 452.424805,30.3085937 C451.431961,32.1315195 450.154305,34.0602112 448.591797,36.0947266 C447.029289,38.1292419 445.670253,39.7731057 444.514648,41.0263672 C443.359044,42.2796287 442.000008,43.6874922 440.4375,45.25 L452.9375,64 C453.52344,62.6979102 454.027993,61.0703223 454.451172,59.1171875 C454.874351,57.1640527 455.159179,55.6422581 455.305664,54.5517578 C455.452149,53.4612576 455.704425,51.4023589 456.0625,48.375 L468.5625,48.375 C468.5625,52.346374 467.797534,56.4641714 466.267578,60.7285156 C464.737623,64.9928599 462.914724,68.7200361 460.798828,71.9101562 C463.240247,74.9700674 465.828111,76.5 468.5625,76.5 L468.5625,89.8789062 C467.748694,89.8789062 466.97559,89.8382166 466.243164,89.7568359 C465.510739,89.6754553 464.770186,89.4964207 464.021484,89.2197266 C463.272783,88.9430325 462.638023,88.7151702 462.117188,88.5361328 C461.596352,88.3570955 460.96973,88.015302 460.237305,87.5107422 C459.504879,87.0061824 458.975913,86.6643889 458.650391,86.4853516 C458.324868,86.3063142 457.787764,85.8750034 457.039062,85.1914062 C456.290361,84.5078091 455.834636,84.1009121 455.671875,83.9707031 C455.509114,83.8404941 455.020837,83.3766316 454.207031,82.5791016 C453.393225,81.7815715 452.970052,81.3665366 452.9375,81.3339844 C450.886708,83.9381641 448.27443,86.0133386 445.100586,87.5595703 C441.926742,89.105802 438.289083,89.8789062 434.1875,89.8789062 L434.1875,89.8789062 Z"></path>

    <text id="solutions" font-family="Oswald" font-size="90" font-weight="normal">
      <tspan x="232.258301" y="198">SOLUTIONS</tspan>
    </text>

    <text id="different" font-family="Oswald" font-size="100" font-weight="normal">
      <tspan x="492" y="89">DIFFERENT</tspan>
    </text>

    <text id="inventive" font-family="Oswald" font-size="100" font-weight="normal">
      <tspan x="-5.75390625" y="89">INVENTIVE</tspan>
    </text>

    <g id="text" stroke="none" stroke-width="1" fill-rule="evenodd">
      <use x="6" y="6" xlink:href="#inventive" opacity="1" fill="url(#pattern)" mask="url(#mask)" />
      <use xlink:href="#inventive" fill="#444" />

      <use x="6" y="6" xlink:href="#ampersand" opacity="1" fill="url(#pattern)" mask="url(#mask)" />
      <use xlink:href="#ampersand" fill="url(#half-fill)" />

      <use x="6" y="6" xlink:href="#different" opacity="1" fill="url(#pattern)" mask="url(#mask)" />
      <use xlink:href="#different" />

      <use x="6" y="6" xlink:href="#solutions" opacity="1" fill="url(#pattern)" mask="url(#mask)" />
      <use x="6" xlink:href="#solutions" fill="url(#half-fill)" />

    </g>
  </defs>

  <use x="16" y="0" xlink:href="#text" fill="#fff"/>
</svg>
