<?xml version="1.0" encoding="UTF-8" standalone="no"?>
<svg width="75px" height="75px" viewBox="0 0 75 75" version="1.1" xmlns="http://www.w3.org/2000/svg" xmlns:xlink="http://www.w3.org/1999/xlink">
    <defs></defs>
    <g id="Page-1" stroke="none" stroke-width="1" fill="none" fill-rule="evenodd">
        <g id="logo" fill="#FFF">
            <g id="spikes" transform="translate(0.000000, 8.000000)">
                <g transform="translate(27.000000, 48.000000)">
                    <path d="M3.3,0.6 L0.8,9.5 L1.4,0.2 L3.3,0.6 L3.3,0.6 L3.3,0.6 Z"></path>
                    <path d="M7.8,0.8 L6.9,19 L5.9,0.8 L7.8,0.8 L7.8,0.8 L7.8,0.8 Z"></path>
                    <path d="M12.3,0.2 L13,9.5 L10.5,0.6 L12.3,0.2 L12.3,0.2 L12.3,0.2 Z"></path>
                </g>
                <g transform="translate(49.000000, 0.000000)">
                    <path d="M6.3,14.5 L14.9,11.1 L7,16 L6.3,14.5 L6.3,14.5 L6.3,14.5 Z"></path>
                    <path d="M3.8,10.8 L18.8,0.4 L4.8,12 L3.8,10.8 L3.8,10.8 L3.8,10.8 Z"></path>
                    <path d="M0.7,7.5 L7.5,1.3 L1.8,8.6 L0.7,7.5 L0.7,7.5 L0.7,7.5 Z"></path>
                </g>
                <path d="M17,8.6 L11.3,1.3 L18.2,7.5 L17,8.6 L17,8.6 L17,8.6 Z"></path>
                <path d="M14.1,12.1 L0,0.5 L15,10.8 L14.1,12.1 L14.1,12.1 L14.1,12.1 Z"></path>
                <path d="M11.8,16 L3.9,11.1 L12.5,14.6 L11.8,16 L11.8,16 L11.8,16 Z"></path>
            </g>
            <g id="eye" transform="translate(21.000000, 31.000000)">
                <path d="M12.9,21.9 C5.8,21.9 0,16.1 0,9 C0,6.8 0.6,4.6 1.6,2.7 L1.7,2.5 L1.9,2.4 C9.1,0.3 16.6,0.3 23.8,2.4 L24,2.5 L24.1,2.7 C25.2,4.6 25.7,6.8 25.7,9 C25.8,16.1 20,21.9 12.9,21.9 L12.9,21.9 L12.9,21.9 L12.9,21.9 Z M12.9,3.9 C10.1,3.9 7.8,6.2 7.8,9 C7.8,11.8 10.1,14.1 12.9,14.1 C15.7,14.1 18,11.8 18,9 C18,6.2 15.7,3.9 12.9,3.9 L12.9,3.9 L12.9,3.9 L12.9,3.9 Z"></path>
                <path d="M14.9,8 C14.2,8 13.7,7.4 13.7,6.8 C13.7,6.1 14.3,5.6 14.9,5.6 C15.6,5.6 16.1,6.2 16.1,6.8 C16.1,7.4 15.6,8 14.9,8 L14.9,8 L14.9,8 L14.9,8 Z"></path>
            </g>
            <path d="M1.1,43.4 C1.1,43.4 13.4,28.8 33.9,28.8 C54.4,28.8 66.7,43.4 66.7,43.4 L33.7,0 L1.1,43.4 L1.1,43.4 L1.1,43.4 Z" id="pyramid"></path>
        </g>
    </g>
</svg>
