<?xml version="1.0" encoding="utf-8"?>
<!-- Generator: Adobe Illustrator 18.1.1, SVG Export Plug-In . SVG Version: 6.00 Build 0)  -->
<svg version="1.1" id="Layer_1" xmlns="http://www.w3.org/2000/svg" xmlns:xlink="http://www.w3.org/1999/xlink" x="0px" y="0px"
	 viewBox="0 0 808 1000" enable-background="new 0 0 808 1000" xml:space="preserve">
<g>
	<g>
		<g>
			<polygon fill="#374140" points="361,780.4 330.7,886.5 338.6,776.4 			"/>
		</g>
		<g>
			<polygon fill="#374140" points="415,783.1 403.6,1000 392.2,783.1 			"/>
		</g>
		<g>
			<polygon fill="#374140" points="468.6,776.4 476.5,886.5 446.2,780.4 			"/>
		</g>
	</g>
	<g>
		<g>
			<polygon fill="#374140" points="658.7,272.3 761.3,230.7 667.3,289.2 			"/>
		</g>
		<g>
			<polygon fill="#374140" points="629.1,227.1 808,104.1 640.6,242.3 			"/>
		</g>
		<g>
			<polygon fill="#374140" points="591.8,188.1 673.5,114.2 605.6,201 			"/>
		</g>
	</g>
	<g>
		<polygon fill="#374140" points="202.3,201.4 134.5,114.6 216.2,188.5 		"/>
	</g>
	<g>
		<polygon fill="#374140" points="167.4,242.7 0,104.5 178.9,227.5 		"/>
	</g>
	<g>
		<polygon fill="#374140" points="140,289.3 46.7,231.1 148.6,272.4 		"/>
	</g>
	<g>
		<g>
			<polygon fill="#374140" points="409.3,390.5 403.6,414.3 397.9,390.5 			"/>
		</g>
		<g>
			<polygon fill="#374140" points="393.4,389.7 392.1,415.3 382.2,391.7 			"/>
		</g>
		<g>
			<polygon fill="#374140" points="376.6,389.6 380.9,418.3 365.9,393.5 			"/>
		</g>
		<g>
			<polygon fill="#374140" points="358,390.2 370.5,423.2 348.2,395.9 			"/>
		</g>
		<g>
			<polygon fill="#374140" points="337,392.3 361,429.8 328.3,399.6 			"/>
		</g>
		<g>
			<polygon fill="#374140" points="311.7,396 352.9,438 304.4,404.7 			"/>
		</g>
		<g>
			<polygon fill="#374140" points="280.5,402.9 346.2,447.4 274.8,412.7 			"/>
		</g>
		<g>
			<polygon fill="#374140" points="266.9,424.7 341.4,457.9 263,435.4 			"/>
		</g>
		<g>
			<polygon fill="#374140" points="259.2,449.3 338.4,469.1 257.3,460.5 			"/>
		</g>
		<g>
			<polygon fill="#374140" points="256,474.9 337.4,480.6 256,486.3 			"/>
		</g>
		<g>
			<polygon fill="#374140" points="257.3,500.6 338.4,492.1 259.2,511.8 			"/>
		</g>
		<g>
			<polygon fill="#374140" points="263,525.7 341.4,503.2 266.9,536.4 			"/>
		</g>
		<g>
			<polygon fill="#374140" points="272.9,549.5 346.2,513.7 278.6,559.4 			"/>
		</g>
		<g>
			<polygon fill="#374140" points="286.9,571.1 352.9,523.2 294.2,579.9 			"/>
		</g>
		<g>
			<polygon fill="#374140" points="304.4,590 361,531.3 313.1,597.4 			"/>
		</g>
		<g>
			<polygon fill="#374140" points="324.9,605.6 370.5,538 334.7,611.3 			"/>
		</g>
		<g>
			<polygon fill="#374140" points="347.8,617.4 380.9,542.9 358.5,621.3 			"/>
		</g>
		<g>
			<polygon fill="#374140" points="372.4,625 392.1,545.8 383.6,627 			"/>
		</g>
		<g>
			<polygon fill="#374140" points="397.9,628.3 403.6,546.9 409.3,628.3 			"/>
		</g>
		<g>
			<polygon fill="#374140" points="423.6,627 415.1,545.8 434.8,625 			"/>
		</g>
		<g>
			<polygon fill="#374140" points="448.7,621.3 426.3,542.9 459.4,617.4 			"/>
		</g>
		<g>
			<polygon fill="#374140" points="472.5,611.3 436.7,538 482.3,605.6 			"/>
		</g>
		<g>
			<polygon fill="#374140" points="494.1,597.4 446.2,531.3 502.8,590 			"/>
		</g>
		<g>
			<polygon fill="#374140" points="513,579.9 454.3,523.2 520.3,571.1 			"/>
		</g>
		<g>
			<polygon fill="#374140" points="528.6,559.4 461,513.7 534.3,549.5 			"/>
		</g>
		<g>
			<polygon fill="#374140" points="540.3,536.4 465.8,503.2 544.2,525.7 			"/>
		</g>
		<g>
			<polygon fill="#374140" points="548,511.8 468.8,492.1 549.9,500.6 			"/>
		</g>
		<g>
			<polygon fill="#374140" points="551.2,486.3 469.8,480.6 551.2,474.9 			"/>
		</g>
		<g>
			<polygon fill="#374140" points="549.9,460.5 468.8,469.1 548,449.3 			"/>
		</g>
		<g>
			<polygon fill="#374140" points="544.2,435.4 465.8,457.9 540.3,424.7 			"/>
		</g>
		<g>
			<polygon fill="#374140" points="532.4,412.7 461,447.4 526.7,402.9 			"/>
		</g>
		<g>
			<polygon fill="#374140" points="502.8,404.7 454.3,438 495.4,396 			"/>
		</g>
		<g>
			<polygon fill="#374140" points="478.9,399.6 446.2,429.8 470.2,392.3 			"/>
		</g>
		<g>
			<polygon fill="#374140" points="459.3,396 436.7,423.2 449.4,390.2 			"/>
		</g>
		<g>
			<polygon fill="#374140" points="441.3,393.5 426.3,418.3 430.6,389.6 			"/>
		</g>
		<g>
			<polygon fill="#374140" points="425.1,391.5 415.1,415.3 413.9,389.5 			"/>
		</g>
	</g>
	<g>
		<path fill="#374140" d="M403.6,634c-84.5,0-153.3-68.8-153.3-153.4c0-26.1,6.7-51.9,19.4-74.7l1.1-2.1l2.3-0.6
			c85.3-24.4,175.7-24.4,261,0l2.3,0.6l1.1,2.1c12.7,22.7,19.4,48.6,19.4,74.7C556.9,565.1,488.1,634,403.6,634z M278.5,413.5
			c-11,20.5-16.8,43.7-16.8,67.1c0,78.3,63.7,142,141.9,142s141.9-63.7,141.9-142c0-23.4-5.8-46.5-16.8-67.1
			C446.8,390.5,360.4,390.5,278.5,413.5z"/>
	</g>
	<g>
		<path fill="#374140" d="M32,548.1l-3.5,41.7l0.1,0.1l21.8-26.6l3,2.5l-25.8,31.5l-3.3-2.7l3.5-41.7l-0.1-0.1L5.9,579.2l-3-2.5
			l25.8-31.5L32,548.1z"/>
		<path fill="#374140" d="M102.9,601.2l-1.9,2.7l-20-13.7l-8.3,12.1l18.7,12.8l-1.9,2.7l-18.7-12.8l-9.1,13.3L82,632.2l-1.9,2.7
			l-23.4-16l23-33.6L102.9,601.2z"/>
		<path fill="#374140" d="M128.5,617.3l-8.9,35.7l0.1,0.1l25.7-26.6l4.3,2.3l-8.2,36.1l0.1,0.1l25.1-26.9l3.4,1.9l-29.3,30.4l-3.6-2
			l8.3-36.9l-0.1-0.1l-26.4,27.1l-3.7-2l9.5-41.1L128.5,617.3z"/>
		<path fill="#374140" d="M234.2,666.6l-1.5,36.8l0.1,0l19.8-31.2l4.6,1.4l-0.8,37l0.1,0l19.2-31.4l3.7,1.1L256.9,716l-3.9-1.2
			l0.7-37.8l-0.1,0l-20.4,31.9l-4-1.2l1-42.2L234.2,666.6z"/>
		<path fill="#374140" d="M304.7,698.2c1.2-2.4,2.7-4.4,4.6-6.1c1.9-1.7,4.1-2.9,6.7-3.7c2.6-0.8,5.4-0.9,8.6-0.4
			c3.2,0.5,5.8,1.5,8,3c2.2,1.5,3.9,3.4,5.2,5.6c1.3,2.2,2.1,4.6,2.5,7.2c0.4,2.6,0.4,5.3-0.1,8.1c-0.4,2.8-1.3,5.4-2.4,7.8
			c-1.2,2.4-2.7,4.4-4.6,6.1c-1.9,1.7-4.1,2.9-6.6,3.6c-2.5,0.8-5.4,0.9-8.5,0.4c-3.2-0.5-5.8-1.5-8-3c-2.2-1.5-3.9-3.4-5.2-5.5
			c-1.3-2.2-2.1-4.6-2.5-7.2c-0.4-2.6-0.4-5.3,0.1-8.1C302.7,703.2,303.5,700.6,304.7,698.2z M305.9,713.2c0.2,2.2,0.8,4.3,1.8,6.1
			c1,1.9,2.3,3.5,4.1,4.8c1.8,1.3,4,2.2,6.6,2.6c2.7,0.4,5,0.3,7.1-0.4c2.1-0.7,3.8-1.8,5.3-3.3c1.5-1.5,2.7-3.2,3.6-5.3
			c0.9-2,1.5-4.1,1.9-6.3c0.4-2.2,0.4-4.4,0.2-6.6c-0.2-2.2-0.8-4.2-1.8-6.1c-1-1.9-2.3-3.5-4-4.8c-1.7-1.3-3.9-2.2-6.6-2.6
			s-5-0.3-7.1,0.4c-2.1,0.7-3.9,1.8-5.3,3.3c-1.5,1.5-2.7,3.2-3.6,5.2s-1.5,4.1-1.9,6.3C305.7,708.8,305.7,711,305.9,713.2z"/>
		<path fill="#374140" d="M392.3,695.1c1.7,0,3.2,0.3,4.7,0.8c1.5,0.5,2.8,1.1,3.9,2c1.1,0.9,2,2,2.6,3.4c0.6,1.4,0.9,3,0.9,4.8
			c-0.1,2.6-0.8,4.8-2.2,6.7c-1.4,1.9-3.4,3-6,3.5l0,0.1c1.3,0.2,2.4,0.6,3.3,1.2c0.9,0.5,1.5,1.2,2.1,2c0.5,0.8,0.9,1.7,1.1,2.8
			c0.2,1,0.3,2.2,0.4,3.4c0,0.7,0,1.5,0,2.5c0,1,0.1,2,0.1,3c0.1,1,0.2,2,0.5,2.9c0.2,0.9,0.5,1.6,0.9,2.1l-4.3-0.1
			c-0.2-0.4-0.4-0.9-0.5-1.4c-0.1-0.6-0.2-1.1-0.2-1.7c0-0.6-0.1-1.2-0.1-1.7c0-0.6,0-1.1-0.1-1.5c0-1.4-0.1-2.9-0.2-4.3
			c-0.1-1.4-0.5-2.7-1-3.8s-1.3-2.1-2.3-2.8c-1-0.7-2.4-1.1-4.3-1l-14.7-0.4l-0.5,18.1l-3.9-0.1l1.2-40.7L392.3,695.1z M391.5,714.4
			c1.2,0,2.3-0.1,3.4-0.4c1.1-0.3,2-0.8,2.8-1.5c0.8-0.7,1.5-1.5,2-2.4c0.5-0.9,0.8-2.1,0.8-3.3c0.1-2.5-0.6-4.5-2-6
			c-1.4-1.5-3.6-2.3-6.5-2.4l-14.5-0.4l-0.5,16L391.5,714.4z"/>
		<path fill="#374140" d="M440,693.9l3.3,37.2l22.7-2l0.3,3.3l-26.6,2.3l-3.5-40.5L440,693.9z"/>
		<path fill="#374140" d="M504.6,685c6.1-1.1,11-0.3,14.7,2.3c3.7,2.6,6.3,7.2,7.7,13.9c1.4,6.6,0.8,11.9-1.5,15.8
			c-2.4,3.9-6.6,6.5-12.6,7.9l-13.8,2.8l-8.2-39.8L504.6,685z M510.2,722c2.9-0.6,5.3-1.4,7.2-2.4c1.9-1,3.4-2.4,4.5-4
			c1.1-1.6,1.7-3.5,1.9-5.8c0.2-2.3,0-4.9-0.6-7.8c-0.6-3-1.5-5.5-2.5-7.5c-1.1-2-2.4-3.5-4-4.6c-1.6-1.1-3.5-1.7-5.7-1.9
			c-2.2-0.2-4.7,0-7.6,0.6l-8.1,1.7l6.9,33.4L510.2,722z"/>
		<path fill="#374140" d="M619.9,656.4c-1.2-0.8-2.5-1.4-3.8-1.8c-1.4-0.3-2.7-0.4-4.2-0.3s-2.8,0.5-4.2,1c-2.5,1-4.4,2.4-5.8,4.1
			c-1.4,1.7-2.3,3.6-2.8,5.6c-0.5,2-0.6,4.1-0.3,6.3c0.3,2.2,0.8,4.3,1.7,6.4c0.9,2,2,3.9,3.3,5.7c1.4,1.8,3,3.2,4.7,4.3
			s3.8,1.7,6,1.9c2.2,0.2,4.5-0.2,7-1.3c1.8-0.7,3.2-1.7,4.3-2.9c1.1-1.2,2-2.6,2.5-4.1c0.6-1.5,0.9-3.1,0.9-4.8
			c0-1.7-0.2-3.5-0.8-5.2l3.6-1.5c0.7,2.4,1.1,4.7,1,6.9c-0.1,2.2-0.5,4.2-1.3,6.1c-0.8,1.9-1.9,3.5-3.4,5c-1.5,1.5-3.4,2.6-5.6,3.6
			c-2.9,1.2-5.7,1.8-8.4,1.6c-2.7-0.1-5.1-0.8-7.3-2c-2.2-1.2-4.2-2.8-5.9-4.8c-1.7-2-3.1-4.4-4.2-6.9s-1.8-5.2-2-7.9s0-5.2,0.7-7.6
			c0.7-2.4,2-4.6,3.7-6.6c1.8-2,4.1-3.6,7.1-4.8c1.8-0.7,3.6-1.2,5.6-1.4c1.9-0.2,3.8-0.1,5.6,0.4c1.8,0.5,3.5,1.2,5.1,2.4
			c1.6,1.1,2.9,2.6,3.9,4.5l-3.6,1.5C622.1,658.4,621.1,657.3,619.9,656.4z"/>
		<path fill="#374140" d="M654.9,644.4c-0.5-2.6-0.6-5.2-0.1-7.6c0.4-2.5,1.4-4.8,3-7c1.5-2.2,3.7-4.1,6.5-5.6
			c2.8-1.5,5.5-2.4,8.2-2.5c2.7-0.1,5.2,0.2,7.5,1.2c2.3,0.9,4.5,2.3,6.4,4.2c1.9,1.8,3.6,4,4.9,6.4c1.4,2.5,2.3,5,2.9,7.6
			c0.5,2.6,0.6,5.2,0.1,7.6c-0.5,2.5-1.4,4.8-3,7c-1.5,2.2-3.7,4-6.5,5.6c-2.8,1.5-5.5,2.4-8.2,2.6c-2.7,0.2-5.2-0.2-7.5-1.1
			c-2.3-0.9-4.5-2.3-6.4-4.1c-1.9-1.8-3.6-4-4.9-6.4C656.4,649.5,655.4,647,654.9,644.4z M665.1,655.4c1.6,1.6,3.3,2.8,5.2,3.7
			c1.9,0.9,3.9,1.3,6.1,1.3c2.2,0,4.5-0.7,6.8-2c2.4-1.3,4.1-2.9,5.3-4.7c1.2-1.8,1.9-3.8,2.2-5.9s0.1-4.2-0.4-6.4
			c-0.5-2.2-1.3-4.2-2.4-6.1c-1.1-2-2.4-3.7-4-5.3c-1.5-1.6-3.3-2.8-5.2-3.7c-1.9-0.9-3.9-1.3-6.1-1.3c-2.2,0-4.4,0.7-6.8,2
			c-2.4,1.3-4.1,2.9-5.3,4.7c-1.2,1.8-1.9,3.8-2.2,5.9c-0.3,2.1-0.1,4.2,0.4,6.3c0.5,2.1,1.3,4.2,2.4,6.2
			C662.2,652.1,663.5,653.8,665.1,655.4z"/>
		<path fill="#374140" d="M718.9,591.1c5.2-3.4,10-4.6,14.5-3.7c4.5,0.9,8.6,4.2,12.5,9.8c3.9,5.6,5.4,10.6,4.8,15.1
			c-0.7,4.5-3.5,8.6-8.5,12.3l-11.6,8l-23.2-33.4L718.9,591.1z M738.6,623c2.4-1.7,4.3-3.4,5.7-5.1c1.4-1.7,2.2-3.5,2.6-5.4
			c0.3-1.9,0.2-3.9-0.5-6.1c-0.7-2.1-1.9-4.5-3.7-7c-1.7-2.5-3.5-4.5-5.2-5.9c-1.8-1.4-3.6-2.3-5.5-2.6c-1.9-0.3-3.9-0.2-6,0.5
			c-2.1,0.7-4.3,1.9-6.7,3.5l-6.8,4.7l19.4,28L738.6,623z"/>
		<path fill="#374140" d="M780.3,543.7l2.1,2.5l-18.6,15.4l9.4,11.3l17.5-14.5l2.1,2.5l-17.5,14.5l10.2,12.4l18.9-15.6l2.1,2.5
			L784.6,593l-25.9-31.4L780.3,543.7z"/>
	</g>
	<path fill="#374140" d="M403.6,420c-33.5,0-60.6,27.1-60.6,60.6s27.1,60.6,60.6,60.6s60.6-27.1,60.6-60.6S437.1,420,403.6,420z
		 M427.6,468.4c-8.1,0-14.6-6.6-14.6-14.7s6.6-14.7,14.6-14.7c8.1,0,14.6,6.6,14.6,14.7S435.7,468.4,427.6,468.4z"/>
	<polygon fill="#374140" points="13.4,520.8 14.8,519.5 14.5,519.3 	"/>
	<polygon fill="#374140" points="793.8,520.8 792.7,519.3 792.4,519.5 	"/>
	<g>
		<path fill="#374140" d="M181.3,397.2L403.6,0L153.1,411.7C162.4,406.6,171.8,401.7,181.3,397.2z"/>
		<path fill="#374140" d="M403.6,0L403.6,0L403.6,0L403.6,0L403.6,0L403.6,0L403.6,0L403.6,0L403.6,0L403.6,0L403.6,0L403.6,0
			L403.6,0L13.4,519.9h0l27-25.5c5.3-5,10.8-10,16.2-14.8L403.6,0L89.8,452.7c13.5-10.1,27.3-19.5,41.5-28.2L403.6,0L403.6,0
			L403.6,0L199.9,388.7c7.4-3.2,15-6.2,22.5-9.1L403.6,0L403.6,0L239.3,373.6c6.4-2.2,12.8-4.2,19.2-6.1L403.6,0L403.6,0
			L274.5,363.1c5.7-1.5,11.5-2.9,17.2-4.2L403.6,0L403.6,0z"/>
		<path fill="#374140" d="M322.9,352.9L403.6,0l-96.7,355.7C312.2,354.7,317.5,353.8,322.9,352.9z"/>
		<path fill="#374140" d="M352.8,349L403.6,0l-66,350.8C342.6,350.1,347.7,349.5,352.8,349z"/>
		<path fill="#374140" d="M382.1,346.9L403.6,0l-36.5,347.8C372.1,347.4,377.1,347.1,382.1,346.9z"/>
		<path fill="#374140" d="M649.1,409L403.6,0l226.6,399.3C636.6,402.4,642.8,405.6,649.1,409z"/>
		<path fill="#374140" d="M403.6,346.4L403.6,346.4c2.5,0,5.1,0.1,7.6,0.1L403.6,0L396,346.5C398.5,346.5,401.1,346.4,403.6,346.4z"
			/>
		<path fill="#374140" d="M403.6,0L403.6,0L403.6,0L403.6,0l83.3,353.3c3.6,0.6,7.1,1.2,10.6,1.9L403.6,0L403.6,0l114.7,359.5
			c3.8,0.9,7.7,1.8,11.5,2.8L403.6,0L403.6,0l148.1,368.4c4.3,1.3,8.6,2.7,12.8,4.1L403.6,0L403.6,0l184.7,381c5,1.9,10,4,15,6.1
			L403.6,0L403.6,0L403.6,0L682,428.3c9.3,5.9,18.5,12.1,27.5,18.6L403.6,0l359.7,491c1.2,1.1,2.4,2.2,3.6,3.3l26.9,25.5L403.6,0z"
			/>
		<path fill="#374140" d="M467.1,350.4L403.6,0l53.3,349.3C460.3,349.6,463.7,350,467.1,350.4z"/>
		<path fill="#374140" d="M437.6,347.6L403.6,0l24,347C430.9,347.2,434.2,347.4,437.6,347.6z"/>
	</g>
</g>
</svg>
